<svg width="32" height="32" viewBox="0 0 32 32" fill="none" xmlns="http://www.w3.org/2000/svg">
<path d="M32 16C32 7.16344 24.8366 0 16 0C7.16344 0 0 7.16344 0 16C0 24.8366 7.16344 32 16 32C24.8366 32 32 24.8366 32 16Z" fill="#222222"/>
<path d="M16.208 10.093C16.662 10.0524 17.1028 9.91937 17.5035 9.70218C17.9042 9.48499 18.2562 9.18819 18.538 8.83C19.1054 8.12549 19.4242 7.25333 19.445 6.349C19.4462 6.23184 19.4351 6.11487 19.412 6C18.4251 6.10233 17.5178 6.58778 16.885 7.352C16.3078 8.02188 15.9759 8.86833 15.944 9.752C15.9446 9.85789 15.956 9.96343 15.978 10.067C16.0536 10.0835 16.1307 10.0922 16.208 10.093ZM13.473 23.733C14.534 23.733 15.005 23 16.328 23C17.673 23 17.968 23.71 19.149 23.71C20.308 23.71 21.085 22.605 21.817 21.523C22.3254 20.7439 22.7235 19.8982 23 19.01C22.309 18.7017 21.7231 18.198 21.3144 17.5611C20.9058 16.9242 20.6922 16.1817 20.7 15.425C20.7016 14.7518 20.8716 14.0897 21.1946 13.4989C21.5175 12.9082 21.9832 12.4077 22.549 12.043C22.1744 11.4891 21.6669 11.038 21.0729 10.7309C20.479 10.4238 19.8175 10.2705 19.149 10.285C17.849 10.285 16.787 11.097 16.119 11.097C15.397 11.097 14.446 10.33 13.319 10.33C11.175 10.33 8.99902 12.157 8.99902 15.606C9.03788 17.6942 9.66337 19.7294 10.804 21.479C11.658 22.719 12.4 23.733 13.473 23.733Z" fill="white"/>
</svg>
